<svg width="24" height="24" viewBox="0 0 24 24" fill="none" xmlns="http://www.w3.org/2000/svg">
<path fill-rule="evenodd" clip-rule="evenodd" d="M12.001 23C18.0761 23 23.001 18.0751 23.001 12C23.001 5.92487 18.0761 1 12.001 1C5.92584 1 1.00098 5.92487 1.00098 12C1.00098 18.0751 5.92584 23 12.001 23ZM12.901 7C12.901 6.50294 12.498 6.1 12.001 6.1C11.5039 6.1 11.101 6.50294 11.101 7V11.1H7.00098C6.50392 11.1 6.10098 11.5029 6.10098 12C6.10098 12.4971 6.50392 12.9 7.00098 12.9H11.101V17C11.101 17.4971 11.5039 17.9 12.001 17.9C12.498 17.9 12.901 17.4971 12.901 17V12.9H17.001C17.498 12.9 17.901 12.4971 17.901 12C17.901 11.5029 17.498 11.1 17.001 11.1H12.901V7Z" fill="#007AFF"/>
</svg>
