<svg width="28" height="27" viewBox="0 0 28 27" fill="none" xmlns="http://www.w3.org/2000/svg">
<path fill-rule="evenodd" clip-rule="evenodd" d="M6.23077 9.09677V21.9677C6.23077 22.6452 6.64615 24 8.30769 24H19.0385C20.7 24 21.1154 22.6452 21.1154 21.9677V9.09677H6.23077ZM11.0769 20.4435V12.6532C11.0769 12.1856 10.6895 11.8065 10.2115 11.8065C9.7336 11.8065 9.34615 12.1856 9.34615 12.6532V20.4435C9.34615 20.9112 9.7336 21.2903 10.2115 21.2903C10.6895 21.2903 11.0769 20.9112 11.0769 20.4435ZM14.5385 20.4435V12.6532C14.5385 12.1856 14.151 11.8065 13.6731 11.8065C13.1951 11.8065 12.8077 12.1856 12.8077 12.6532V20.4435C12.8077 20.9112 13.1951 21.2903 13.6731 21.2903C14.151 21.2903 14.5385 20.9112 14.5385 20.4435ZM18 20.4435V12.6532C18 12.1856 17.6126 11.8065 17.1346 11.8065C16.6567 11.8065 16.2692 12.1856 16.2692 12.6532V20.4435C16.2692 20.9112 16.6567 21.2903 17.1346 21.2903C17.6126 21.2903 18 20.9112 18 20.4435Z" fill="#838388"/>
<path d="M9.34615 6.3871V5.03226C9.34615 4.35484 9.76154 3 11.4231 3H15.5769C17.2385 3 17.6538 4.35484 17.6538 5.03226V6.3871H21.8077C22.19 6.3871 22.5 6.69039 22.5 7.06452C22.5 7.43864 22.19 7.74194 21.8077 7.74194H5.19231C4.80996 7.74194 4.5 7.43864 4.5 7.06452C4.5 6.69039 4.80996 6.3871 5.19231 6.3871H9.34615Z" fill="#838388"/>
</svg>
