<svg width="12" height="11" viewBox="0 0 12 11" fill="none" xmlns="http://www.w3.org/2000/svg">
<path d="M9.17774 2.5002V2.5252H9.20273H9.80273C10.2735 2.5252 10.725 2.7122 11.0578 3.04508C11.3907 3.37796 11.5777 3.82944 11.5777 4.3002V9.10019C11.5777 9.57095 11.3907 10.0224 11.0578 10.3553C10.725 10.6882 10.2735 10.8752 9.80273 10.8752H2.60273C2.13198 10.8752 1.6805 10.6882 1.34762 10.3553C1.01474 10.0224 0.827734 9.57095 0.827734 9.10019V4.3002C0.827734 3.82944 1.01474 3.37796 1.34762 3.04508C1.6805 2.7122 2.13198 2.5252 2.60273 2.5252H3.20273H3.22773V2.5002C3.22773 2.02944 3.41474 1.57796 3.74762 1.24508C4.0805 0.912204 4.53198 0.725195 5.00273 0.725195H7.40273C7.87349 0.725195 8.32497 0.912204 8.65785 1.24508C8.99073 1.57796 9.17774 2.02944 9.17774 2.5002ZM4.37773 2.5002V2.5252H4.40273H8.00273H8.02773V2.5002C8.02773 2.33443 7.96189 2.17546 7.84468 2.05825C7.72747 1.94104 7.56849 1.8752 7.40273 1.8752H5.00273C4.83697 1.8752 4.678 1.94104 4.56079 2.05825C4.44358 2.17546 4.37773 2.33443 4.37773 2.5002ZM9.80273 3.67519H2.60273C2.43697 3.67519 2.278 3.74104 2.16079 3.85825C2.04358 3.97546 1.97773 4.13443 1.97773 4.3002V9.10019C1.97773 9.26595 2.04358 9.42493 2.16079 9.54214C2.278 9.65935 2.43697 9.72519 2.60273 9.72519H9.80273C9.96849 9.72519 10.1275 9.65935 10.2447 9.54214C10.3619 9.42493 10.4277 9.26595 10.4277 9.10019V4.3002C10.4277 4.13443 10.3619 3.97546 10.2447 3.85825C10.1275 3.74104 9.96849 3.67519 9.80273 3.67519Z" fill="#707579" stroke="#F5F5F5" stroke-width="0.05"/>
</svg>
