<svg width="28" height="28" viewBox="0 0 28 28" fill="none" xmlns="http://www.w3.org/2000/svg">
<rect x="0.5" y="0.5" width="27" height="27" rx="13.5" fill="#20C86E"/>
<rect x="0.5" y="0.5" width="27" height="27" rx="13.5" stroke="white"/>
<path d="M14 12.6667C13.7363 12.6667 13.4785 12.7449 13.2592 12.8914C13.04 13.0379 12.8691 13.2461 12.7682 13.4898C12.6672 13.7334 12.6408 14.0015 12.6923 14.2601C12.7437 14.5188 12.8707 14.7564 13.0572 14.9428C13.2437 15.1293 13.4812 15.2563 13.7399 15.3077C13.9985 15.3592 14.2666 15.3328 14.5102 15.2319C14.7539 15.1309 14.9621 14.96 15.1086 14.7408C15.2551 14.5215 15.3333 14.2637 15.3333 14C15.3333 13.6464 15.1929 13.3073 14.9428 13.0572C14.6928 12.8072 14.3536 12.6667 14 12.6667ZM9.33333 12.6667C9.06963 12.6667 8.81184 12.7449 8.59257 12.8914C8.37331 13.0379 8.20241 13.2461 8.10149 13.4898C8.00058 13.7334 7.97417 14.0015 8.02562 14.2601C8.07707 14.5188 8.20405 14.7564 8.39052 14.9428C8.57699 15.1293 8.81457 15.2563 9.07321 15.3077C9.33185 15.3592 9.59994 15.3328 9.84358 15.2319C10.0872 15.1309 10.2955 14.96 10.442 14.7408C10.5885 14.5215 10.6667 14.2637 10.6667 14C10.6667 13.6464 10.5262 13.3073 10.2761 13.0572C10.0261 12.8072 9.68696 12.6667 9.33333 12.6667ZM18.6667 12.6667C18.403 12.6667 18.1452 12.7449 17.9259 12.8914C17.7066 13.0379 17.5357 13.2461 17.4348 13.4898C17.3339 13.7334 17.3075 14.0015 17.359 14.2601C17.4104 14.5188 17.5374 14.7564 17.7239 14.9428C17.9103 15.1293 18.1479 15.2563 18.4065 15.3077C18.6652 15.3592 18.9333 15.3328 19.1769 15.2319C19.4205 15.1309 19.6288 14.96 19.7753 14.7408C19.9218 14.5215 20 14.2637 20 14C20 13.6464 19.8595 13.3073 19.6095 13.0572C19.3594 12.8072 19.0203 12.6667 18.6667 12.6667Z" fill="white"/>
</svg>
