<svg width="19" height="20" viewBox="0 0 19 20" fill="none" xmlns="http://www.w3.org/2000/svg">
<path fill-rule="evenodd" clip-rule="evenodd" d="M2.0002 10.3L2.00021 10.0761V9.99997C2.00056 8.53005 2.00558 7.4531 2.07555 6.59665C2.14934 5.69349 2.29088 5.11508 2.52882 4.6481C2.9938 3.73551 3.73576 2.99356 4.64835 2.52857C5.11532 2.29064 5.69373 2.1491 6.5969 2.0753C7.51057 2.00065 8.6752 1.99995 10.3002 1.99995H11.6002L11.7362 2H14.8126C14.7757 1.83635 14.7211 1.67221 14.6386 1.51038C14.4085 1.05879 14.0414 0.691635 13.5898 0.461539C13.2814 0.304373 12.9645 0.248363 12.6587 0.22338C12.3716 0.199919 12.0251 0.199935 11.6336 0.199952L11.6002 0.199954H10.3002L10.26 0.199954C8.6839 0.199948 7.44586 0.199944 6.45032 0.281282C5.43584 0.364169 4.59418 0.535984 3.83116 0.924761C2.57988 1.56232 1.56256 2.57964 0.925006 3.83092C0.536229 4.59393 0.364414 5.4356 0.281527 6.45008C0.200189 7.44561 0.200193 8.68365 0.200199 10.2598L0.200199 10.3V11.6L0.200196 11.6333C0.20018 12.0248 0.200165 12.3713 0.223625 12.6584C0.248608 12.9642 0.304618 13.2811 0.461784 13.5895C0.69188 14.0411 1.05903 14.4083 1.51062 14.6384C1.67244 14.7208 1.83658 14.7754 2.00021 14.8123V11.6795L2.0002 11.6V10.3ZM8.0802 3.99998L8.04541 3.99998C7.52446 3.99996 7.08085 3.99995 6.71645 4.02923C6.33372 4.05999 5.96115 4.12732 5.60396 4.3058C5.04219 4.5865 4.58672 5.04197 4.30602 5.60374C4.12755 5.96093 4.06021 6.3335 4.02946 6.71623C4.00017 7.08063 4.00019 7.52422 4.0002 8.04517L4.0002 8.07998V15.92L4.0002 15.9548C4.00019 16.4757 4.00017 16.9193 4.02946 17.2837C4.06021 17.6664 4.12755 18.039 4.30602 18.3962C4.58672 18.958 5.04219 19.4134 5.60396 19.6941C5.96115 19.8726 6.33372 19.9399 6.71645 19.9707C7.08082 20 7.52439 20 8.04529 20H8.0802H14.9202H14.955C15.4759 20 15.9196 20 16.284 19.9707C16.6667 19.9399 17.0393 19.8726 17.3964 19.6941C17.9582 19.4134 18.4137 18.958 18.6944 18.3962C18.8729 18.039 18.9402 17.6664 18.971 17.2837C19.0002 16.9193 19.0002 16.4757 19.0002 15.9548V15.92V8.07998V8.04518C19.0002 7.52422 19.0002 7.08063 18.971 6.71623C18.9402 6.3335 18.8729 5.96093 18.6944 5.60374C18.4137 5.04197 17.9582 4.5865 17.3964 4.3058C17.0393 4.12732 16.6667 4.05999 16.284 4.02923C15.9196 3.99995 15.476 3.99996 14.955 3.99998L14.9202 3.99998H8.0802ZM6.40852 5.91598C6.47344 5.88354 6.58722 5.84542 6.86064 5.82345C7.1443 5.80066 7.51499 5.79998 8.0802 5.79998H14.9202C15.4854 5.79998 15.8561 5.80066 16.1398 5.82345C16.4132 5.84542 16.527 5.88354 16.5919 5.91598C16.805 6.02245 16.9777 6.19522 17.0842 6.4083C17.1166 6.47321 17.1548 6.587 17.1767 6.86041C17.1995 7.14407 17.2002 7.51476 17.2002 8.07998V15.92C17.2002 16.4852 17.1995 16.8559 17.1767 17.1395C17.1548 17.4129 17.1166 17.5267 17.0842 17.5916C16.9777 17.8047 16.805 17.9775 16.5919 18.084C16.527 18.1164 16.4132 18.1545 16.1398 18.1765C15.8561 18.1993 15.4854 18.2 14.9202 18.2H8.0802C7.51499 18.2 7.1443 18.1993 6.86064 18.1765C6.58722 18.1545 6.47344 18.1164 6.40852 18.084C6.19544 17.9775 6.02267 17.8047 5.9162 17.5916C5.88377 17.5267 5.84564 17.4129 5.82367 17.1395C5.80088 16.8559 5.8002 16.4852 5.8002 15.92V8.07998C5.8002 7.51476 5.80088 7.14407 5.82367 6.86041C5.84564 6.587 5.88377 6.47321 5.9162 6.4083C6.02267 6.19522 6.19544 6.02245 6.40852 5.91598Z" fill="#A2ACB0"/>
</svg>
