<svg width="18" height="18" viewBox="0 0 18 18" fill="none" xmlns="http://www.w3.org/2000/svg">
<path d="M16.875 10.5142C16.6429 10.5142 16.4204 10.6063 16.2563 10.7704C16.0922 10.9345 16 11.1571 16 11.3892V14.8892C16 15.1212 15.9078 15.3438 15.7437 15.5079C15.5796 15.672 15.3571 15.7642 15.125 15.7642H2.875C2.64294 15.7642 2.42038 15.672 2.25628 15.5079C2.09219 15.3438 2 15.1212 2 14.8892V11.3892C2 11.1571 1.90781 10.9345 1.74372 10.7704C1.57962 10.6063 1.35706 10.5142 1.125 10.5142C0.892936 10.5142 0.670376 10.6063 0.506282 10.7704C0.342187 10.9345 0.25 11.1571 0.25 11.3892V14.8892C0.25 15.5854 0.526562 16.253 1.01884 16.7453C1.51113 17.2376 2.17881 17.5142 2.875 17.5142H15.125C15.8212 17.5142 16.4889 17.2376 16.9812 16.7453C17.4734 16.253 17.75 15.5854 17.75 14.8892V11.3892C17.75 11.1571 17.6578 10.9345 17.4937 10.7704C17.3296 10.6063 17.1071 10.5142 16.875 10.5142ZM8.37875 12.0104C8.46197 12.0901 8.56009 12.1525 8.6675 12.1942C8.77224 12.2405 8.88549 12.2644 9 12.2644C9.11451 12.2644 9.22776 12.2405 9.3325 12.1942C9.43991 12.1525 9.53803 12.0901 9.62125 12.0104L13.1212 8.51041C13.286 8.34564 13.3786 8.12217 13.3786 7.88916C13.3786 7.65615 13.286 7.43268 13.1212 7.26791C12.9565 7.10314 12.733 7.01058 12.5 7.01058C12.267 7.01058 12.0435 7.10314 11.8787 7.26791L9.875 9.28041V0.88916C9.875 0.657096 9.78281 0.434536 9.61872 0.270442C9.45462 0.106347 9.23206 0.0141602 9 0.0141602C8.76794 0.0141602 8.54538 0.106347 8.38128 0.270442C8.21719 0.434536 8.125 0.657096 8.125 0.88916V9.28041L6.12125 7.26791C6.03967 7.18633 5.94281 7.12161 5.83622 7.07746C5.72962 7.0333 5.61538 7.01058 5.5 7.01058C5.38462 7.01058 5.27038 7.0333 5.16378 7.07746C5.05719 7.12161 4.96033 7.18633 4.87875 7.26791C4.79717 7.34949 4.73245 7.44635 4.6883 7.55294C4.64415 7.65954 4.62142 7.77378 4.62142 7.88916C4.62142 8.00454 4.64415 8.11878 4.6883 8.22538C4.73245 8.33197 4.79717 8.42883 4.87875 8.51041L8.37875 12.0104Z" fill="black"/>
</svg>
