<svg width="17" height="16" viewBox="0 0 17 16" fill="none" xmlns="http://www.w3.org/2000/svg">
<path fill-rule="evenodd" clip-rule="evenodd" d="M12.4732 0.381085C12.6324 0.363206 12.7932 0.363206 12.9524 0.381085C13.3862 0.429795 13.7352 0.630695 14.0482 0.875703C14.3411 1.105 14.6648 1.42443 15.0372 1.79194L15.0955 1.84951C15.4772 2.22613 15.8084 2.55293 16.0461 2.84916C16.2997 3.16529 16.5084 3.51921 16.559 3.9615C16.5775 4.12341 16.5775 4.2869 16.559 4.44881C16.5084 4.89111 16.2997 5.24503 16.0461 5.56116C15.8084 5.85739 15.4772 6.18419 15.0955 6.56082L6.5778 14.9664C6.55715 14.9867 6.53668 15.007 6.51634 15.0271C6.22458 15.3159 5.95993 15.5778 5.62256 15.736C5.55896 15.7658 5.49392 15.7925 5.42769 15.816C5.07645 15.9403 4.7041 15.9398 4.29361 15.9392C4.26499 15.9391 4.23618 15.9391 4.20718 15.9391H4.11817C3.59938 15.9391 3.14882 15.9392 2.7826 15.8976C2.39182 15.8532 2.00569 15.7537 1.66446 15.4894C1.52134 15.3785 1.39281 15.25 1.28194 15.1068C1.01761 14.7656 0.918062 14.3795 0.873706 13.9887C0.832138 13.6225 0.832161 13.1719 0.832189 12.6531L0.83219 12.613C0.83219 12.5846 0.83215 12.5564 0.83211 12.5284C0.831537 12.1272 0.831018 11.7634 0.949676 11.4196C0.979428 11.3334 1.01464 11.2492 1.0551 11.1674C1.21647 10.8415 1.47577 10.5863 1.76178 10.3049C1.78174 10.2852 1.80183 10.2655 1.82202 10.2455L10.3884 1.79193C10.7608 1.42442 11.0845 1.105 11.3774 0.875703C11.6904 0.630695 12.0394 0.429795 12.4732 0.381085ZM12.7867 1.85681C12.7376 1.8513 12.688 1.8513 12.6389 1.85681C12.5891 1.8624 12.4977 1.8846 12.2927 2.04508C12.0752 2.21535 11.8123 2.47316 11.4026 2.87746L10.9854 3.2892L13.641 5.90986L14.023 5.53285C14.4426 5.11881 14.7107 4.85257 14.8878 4.63182C15.055 4.42339 15.0778 4.33039 15.0836 4.28031C15.0893 4.23037 15.0893 4.17995 15.0836 4.13001C15.0778 4.07993 15.055 3.98692 14.8878 3.77849C14.7107 3.55774 14.4426 3.29151 14.023 2.87746C13.6133 2.47316 13.3504 2.21535 13.1329 2.04508C12.9279 1.8846 12.8365 1.8624 12.7867 1.85681ZM12.5839 6.95302L9.92827 4.33237L2.86509 11.3025C2.48334 11.6793 2.42236 11.7527 2.38594 11.8263C2.37346 11.8515 2.3626 11.8775 2.35343 11.9041C2.32664 11.9817 2.31719 12.0767 2.31719 12.613C2.31719 13.1835 2.31831 13.5488 2.34923 13.8212C2.37843 14.0785 2.426 14.1588 2.4559 14.1974C2.4901 14.2416 2.52974 14.2812 2.57388 14.3154C2.61248 14.3453 2.69281 14.3929 2.95008 14.4221C3.22251 14.453 3.5878 14.4541 4.1583 14.4541H4.20718C4.75583 14.4541 4.85271 14.4442 4.93202 14.4161C4.95245 14.4089 4.9725 14.4007 4.99212 14.3915C5.0683 14.3557 5.14421 14.2947 5.53472 13.9094L12.5839 6.95302Z" fill="#20C86E"/>
</svg>
