<svg width="24" height="24" viewBox="0 0 24 24" fill="none" xmlns="http://www.w3.org/2000/svg">
<path fill-rule="evenodd" clip-rule="evenodd" d="M16.1676 2.85691C16.3587 2.83546 16.5516 2.83546 16.7427 2.85691C17.2633 2.91536 17.682 3.15644 18.0576 3.45045C18.4092 3.72561 18.7976 4.10892 19.2444 4.54994L19.3144 4.61902C19.7724 5.07096 20.1699 5.46312 20.4551 5.8186C20.7595 6.19796 21.0099 6.62266 21.0706 7.15342C21.0927 7.34771 21.0927 7.54389 21.0706 7.73818C21.0099 8.26894 20.7595 8.69364 20.4551 9.073C20.1699 9.42848 19.7724 9.82064 19.3144 10.2726L9.09316 20.3592C9.06839 20.3837 9.04382 20.408 9.01941 20.4322C8.6693 20.7787 8.35173 21.093 7.94688 21.2828C7.87055 21.3186 7.79251 21.3506 7.71304 21.3788C7.29154 21.528 6.84473 21.5274 6.35214 21.5266C6.31779 21.5266 6.28322 21.5265 6.24843 21.5265H6.14161C5.51907 21.5266 4.97839 21.5266 4.53893 21.4767C4.06998 21.4235 3.60663 21.304 3.19716 20.9868C3.02541 20.8538 2.87118 20.6996 2.73813 20.5278C2.42094 20.1183 2.30148 19.655 2.24825 19.186C2.19837 18.7466 2.1984 18.2059 2.19843 17.5833L2.19843 17.5352C2.19843 17.5012 2.19838 17.4673 2.19834 17.4337C2.19765 16.9522 2.19703 16.5157 2.33942 16.1031C2.37512 15.9997 2.41738 15.8986 2.46593 15.8005C2.65957 15.4094 2.97072 15.1032 3.31394 14.7655C3.33789 14.7419 3.362 14.7182 3.38623 14.6943L13.6659 4.54992C14.1128 4.10891 14.5012 3.72561 14.8527 3.45045C15.2283 3.15644 15.6471 2.91536 16.1676 2.85691ZM16.5438 4.62778C16.4849 4.62117 16.4254 4.62117 16.3665 4.62778C16.3068 4.63449 16.1971 4.66113 15.9511 4.8537C15.69 5.05803 15.3745 5.3674 14.8829 5.85257L14.3822 6.34665L17.569 9.49144L18.0274 9.03903C18.5309 8.54218 18.8526 8.2227 19.0652 7.9578C19.2659 7.70768 19.2932 7.59608 19.3001 7.53598C19.3069 7.47605 19.3069 7.41554 19.3001 7.35562C19.2932 7.29552 19.2659 7.18392 19.0652 6.9338C18.8526 6.6689 18.5309 6.34942 18.0274 5.85257C17.5358 5.3674 17.2203 5.05803 16.9593 4.8537C16.7132 4.66113 16.6036 4.63449 16.5438 4.62778ZM16.3005 10.7432L13.1137 7.59845L4.63792 15.9627C4.17982 16.4147 4.10664 16.5029 4.06293 16.5912C4.04796 16.6214 4.03493 16.6526 4.02392 16.6845C3.99178 16.7776 3.98043 16.8916 3.98043 17.5352C3.98043 18.2198 3.98178 18.6581 4.01888 18.9851C4.05392 19.2938 4.11101 19.3902 4.14689 19.4365C4.18792 19.4895 4.23549 19.537 4.28846 19.5781C4.33478 19.614 4.43118 19.671 4.7399 19.7061C5.06682 19.7432 5.50516 19.7445 6.18976 19.7445H6.24843C6.9068 19.7445 7.02306 19.7327 7.11823 19.699C7.14274 19.6903 7.16681 19.6804 7.19035 19.6694C7.28176 19.6265 7.37286 19.5533 7.84147 19.0908L16.3005 10.7432Z" fill="#007AFF"/>
</svg>
