<svg width="49" height="57" viewBox="0 0 49 57" fill="none" xmlns="http://www.w3.org/2000/svg">
<ellipse cx="24.9492" cy="24.0365" rx="17.4496" ry="16.3239" fill="black"/>
<path d="M26.0739 1.52285V9.40334M30.0141 3.21153L27.7626 9.40334M32.8286 2.08574L29.4512 10.5291M36.2059 6.58888L31.7028 12.2178M41.272 6.58888L35.0801 13.3436M40.1462 11.092L36.2059 15.0323M44.6493 12.7807L37.3317 17.2838M48.0267 15.0323L40.1462 19.5354M46.9009 20.6612L39.0204 21.787M48.0267 26.853L39.5833 25.1643M44.6493 30.2303L39.5833 27.4159M44.6493 33.0448L39.5833 29.1045M42.3977 35.2964L36.7688 30.2303M14.2532 36.4221L9.75002 40.3624M12.5645 34.1706L9.18713 37.5479M12.0016 33.0448L7.49845 34.7335M10.3129 30.2303L5.80977 33.0448M10.8758 28.5417H4.1211M10.3129 26.2901H6.93556M10.8758 23.4756H4.1211M10.3129 21.2241L5.24688 20.6612M10.8758 18.9725L1.30664 16.158M11.4387 17.8467L5.80977 13.9065M8.62423 13.3436L12.5645 15.5951M14.2532 13.9065L7.49845 7.71466M17.0676 10.5291L12.5645 3.77442M20.445 8.84045L19.3192 0.959961M22.6965 5.46309L23.2594 8.84045" stroke="black" stroke-width="1.12578" stroke-linecap="round" stroke-linejoin="round"/>
<path d="M17.0661 38.6732C17.0661 39.9866 16.7284 42.726 15.3774 43.1763M36.7673 34.17C36.5797 36.7969 36.7673 41.8254 39.0189 40.9247" stroke="black" stroke-width="1.12578" stroke-linecap="round" stroke-linejoin="round"/>
<path d="M26.6533 31.0735L29.5315 28.4582C30.1297 27.9147 31.0887 28.1599 31.3527 28.9238L32.4626 32.1361C32.5601 32.4183 32.7657 32.6503 33.0342 32.7809L34.7265 33.604C35.6284 34.0427 35.5497 35.3529 34.6017 35.6804L34.0346 35.8764C33.6482 36.0099 33.3645 36.3424 33.2936 36.7451L33.0491 38.1328C32.8958 39.0026 31.8463 39.3652 31.1888 38.7755L30.1397 37.8348C29.8353 37.5618 29.4069 37.4753 29.0204 37.6089L26.259 38.563C25.432 38.8488 24.6093 38.123 24.7898 37.2667L25.2151 35.2488C25.2915 34.8867 25.1849 34.5101 24.9301 34.2416L23.9563 33.2157C23.2577 32.4796 23.8131 31.2676 24.8267 31.3162L25.8424 31.3648C26.1406 31.379 26.4323 31.2743 26.6533 31.0735Z" fill="#20C86E" stroke="black" stroke-width="0.450313" stroke-linecap="round" stroke-linejoin="round"/>
<path d="M25.8335 45.5275L30.2208 43.0803C30.9266 42.6866 31.8051 43.1429 31.8889 43.9467L32.3496 48.3645C32.3806 48.6614 32.5283 48.9339 32.7601 49.122L34.9581 50.9048C35.737 51.5366 35.3632 52.7948 34.3656 52.8988L33.028 53.0383C32.6213 53.0808 32.2696 53.3403 32.1092 53.7164L31.2554 55.718C30.9089 56.5304 29.8045 56.6455 29.2978 55.9221L28.0494 54.1397C27.8148 53.8049 27.4172 53.6235 27.0105 53.6659L23.0673 54.0771C22.197 54.1679 21.5604 53.2745 21.9304 52.4815L23.1695 49.8253C23.326 49.4898 23.3076 49.0989 23.1203 48.7797L21.9491 46.7832C21.4356 45.9078 22.2513 44.8534 23.2275 45.1305L24.9776 45.6273C25.2649 45.7088 25.5727 45.6729 25.8335 45.5275Z" fill="#FF6E8E" stroke="black" stroke-width="0.450313" stroke-linecap="round" stroke-linejoin="round"/>
<path d="M16.6784 33.7381L18.1227 30.1273C18.4228 29.3769 19.3925 29.1779 19.964 29.7494L22.3673 32.1526C22.5784 32.3637 22.8647 32.4824 23.1633 32.4824H25.0451C26.0481 32.4824 26.5504 33.695 25.8412 34.4042L25.417 34.8284C25.1279 35.1175 25.0182 35.5406 25.1305 35.9337L25.5176 37.2886C25.7603 38.1379 24.9751 38.923 24.1259 38.6804L22.771 38.2933C22.3779 38.1809 21.9548 38.2906 21.6657 38.5797L19.5998 40.6455C18.9811 41.2643 17.9238 40.9715 17.7116 40.1225L17.2114 38.1219C17.1217 37.7628 16.8611 37.4708 16.5146 37.3408L15.1901 36.8441C14.2399 36.4878 14.2092 35.155 15.1419 34.7553L16.0766 34.3547C16.351 34.2371 16.5675 34.0153 16.6784 33.7381Z" fill="#FFE800" stroke="black" stroke-width="0.450313" stroke-linecap="round" stroke-linejoin="round"/>
<path d="M19.3188 25.7761C16.3517 27.4452 14.4283 27.453 13.2183 26.649C9.66094 24.2849 13.479 16.13 17.7206 15.6279C22.1401 15.1047 23.8103 20.1311 21.4228 23.8869C20.9418 24.6436 20.2613 25.3049 19.3188 25.7761Z" fill="white" stroke="white" stroke-width="1.12578" stroke-linecap="round" stroke-linejoin="round"/>
<path d="M16.5047 25.2113C15.7692 24.6597 15.5407 24.1206 15.6044 23.6247C15.8047 22.0668 18.5109 21.2197 19.8672 22.0119C21.4772 22.9523 20.0472 25.4336 18.2102 25.7528C17.7177 25.8384 17.1638 25.7057 16.5047 25.2113Z" fill="black" stroke="white" stroke-width="0.67547" stroke-linecap="round" stroke-linejoin="round"/>
<path d="M29.211 25.7761C32.1781 27.4452 34.1015 27.453 35.3115 26.649C38.8688 24.2849 35.0508 16.13 30.8092 15.6279C26.3897 15.1047 24.7195 20.1311 27.107 23.8869C27.588 24.6436 28.2685 25.3049 29.211 25.7761Z" fill="white" stroke="white" stroke-width="1.12578" stroke-linecap="round" stroke-linejoin="round"/>
<path d="M32.025 25.2113C32.7606 24.6597 32.9891 24.1206 32.9254 23.6247C32.7251 22.0668 30.0189 21.2197 28.6626 22.0119C27.0526 22.9523 28.4826 25.4336 30.3195 25.7528C30.8121 25.8384 31.3659 25.7057 32.025 25.2113Z" fill="black" stroke="white" stroke-width="0.67547" stroke-linecap="round" stroke-linejoin="round"/>
</svg>
