<svg width="11" height="11" viewBox="0 0 11 11" fill="none" xmlns="http://www.w3.org/2000/svg">
<path fill-rule="evenodd" clip-rule="evenodd" d="M6.64211 2.97947C6.64211 3.36138 6.4904 3.72765 6.22034 3.99771C5.95029 4.26776 5.58402 4.41947 5.20211 4.41947C4.8202 4.41947 4.45393 4.26776 4.18388 3.99771C3.91382 3.72765 3.76211 3.36138 3.76211 2.97947C3.76211 2.59756 3.91382 2.23129 4.18388 1.96124C4.45393 1.69119 4.8202 1.53947 5.20211 1.53947C5.58402 1.53947 5.95029 1.69119 6.22034 1.96124C6.4904 2.23129 6.64211 2.59756 6.64211 2.97947ZM7.72211 2.97947C7.72211 3.64782 7.45661 4.28879 6.98402 4.76138C6.51143 5.23397 5.87045 5.49947 5.20211 5.49947C4.53376 5.49947 3.89279 5.23397 3.4202 4.76138C2.94761 4.28879 2.68211 3.64782 2.68211 2.97947C2.68211 2.31113 2.94761 1.67016 3.4202 1.19756C3.89279 0.724972 4.53376 0.459473 5.20211 0.459473C5.87045 0.459473 6.51143 0.724972 6.98402 1.19756C7.45661 1.67016 7.72211 2.31113 7.72211 2.97947ZM1.24211 8.73947C1.24211 8.59259 1.40051 8.15699 2.19251 7.68899C2.92547 7.25627 3.99251 6.93947 5.20211 6.93947C6.41171 6.93947 7.47875 7.25627 8.21171 7.68899C9.00371 8.15699 9.16211 8.59259 9.16211 8.73947C9.16211 8.93043 9.08625 9.11356 8.95123 9.24859C8.8162 9.38362 8.63307 9.45947 8.44211 9.45947H1.96211C1.77115 9.45947 1.58802 9.38362 1.45299 9.24859C1.31797 9.11356 1.24211 8.93043 1.24211 8.73947ZM5.20211 5.85947C2.43011 5.85947 0.162109 7.29947 0.162109 8.73947C0.162109 9.21686 0.351752 9.6747 0.689317 10.0123C1.02688 10.3498 1.48472 10.5395 1.96211 10.5395H8.44211C8.9195 10.5395 9.37734 10.3498 9.7149 10.0123C10.0525 9.6747 10.2421 9.21686 10.2421 8.73947C10.2421 7.29947 7.97411 5.85947 5.20211 5.85947Z" fill="#707579"/>
</svg>
