<svg width="44" height="44" viewBox="0 0 44 44" fill="none" xmlns="http://www.w3.org/2000/svg">
<rect width="44" height="44" rx="22" fill="#F2F2F7"/>
<path fill-rule="evenodd" clip-rule="evenodd" d="M22.0003 13.0904C19.7321 13.0904 17.8947 14.9274 17.8947 17.1918C17.8947 19.4562 19.7321 21.2932 22.0003 21.2932C24.2685 21.2932 26.1059 19.4562 26.1059 17.1918C26.1059 14.9274 24.2685 13.0904 22.0003 13.0904ZM15.9147 17.1918C15.9147 13.8323 18.6401 11.1104 22.0003 11.1104C25.3605 11.1104 28.0859 13.8323 28.0859 17.1918C28.0859 20.5512 25.3605 23.2732 22.0003 23.2732C18.6401 23.2732 15.9147 20.5512 15.9147 17.1918ZM13.3318 26.6469C14.4698 25.5973 15.8589 25.2532 16.9047 25.2532H27.0958C28.1416 25.2532 29.5307 25.5973 30.6687 26.6469C31.8307 27.7187 32.6153 29.4186 32.6153 31.9004C32.6153 32.4471 32.172 32.8904 31.6253 32.8904C31.0785 32.8904 30.6353 32.4471 30.6353 31.9004C30.6353 29.8564 30.0044 28.7278 29.3263 28.1024C28.6242 27.4548 27.7487 27.2332 27.0958 27.2332H16.9047C16.2519 27.2332 15.3763 27.4548 14.6742 28.1024C13.9962 28.7278 13.3653 29.8564 13.3653 31.9004C13.3653 32.4471 12.922 32.8904 12.3753 32.8904C11.8285 32.8904 11.3853 32.4471 11.3853 31.9004C11.3853 29.4186 12.1698 27.7187 13.3318 26.6469Z" fill="#707579"/>
</svg>
