<svg width="25" height="25" viewBox="0 0 25 25" fill="none" xmlns="http://www.w3.org/2000/svg">
<path fill-rule="evenodd" clip-rule="evenodd" d="M6.5 6.76416H10.5V10.7642H6.5V6.76416Z" stroke="#303033" stroke-width="2" stroke-linecap="round" stroke-linejoin="round"/>
<path fill-rule="evenodd" clip-rule="evenodd" d="M6.5 14.7642H10.5V18.7642H6.5V14.7642Z" stroke="#303033" stroke-width="2" stroke-linecap="round" stroke-linejoin="round"/>
<path fill-rule="evenodd" clip-rule="evenodd" d="M18.5 10.7642H14.5V6.76416L18.5 6.76416V10.7642Z" stroke="#303033" stroke-width="2" stroke-linecap="round" stroke-linejoin="round"/>
<path d="M16.5354 16.7287C16.5549 16.7483 16.5549 16.7799 16.5354 16.7995C16.5158 16.819 16.4842 16.819 16.4646 16.7995C16.4451 16.7799 16.4451 16.7483 16.4646 16.7287C16.4842 16.7092 16.5158 16.7092 16.5354 16.7287" stroke="#303033" stroke-width="2" stroke-linecap="round" stroke-linejoin="round"/>
<path d="M14.5354 14.7287C14.5549 14.7483 14.5549 14.7799 14.5354 14.7995C14.5158 14.819 14.4842 14.819 14.4646 14.7995C14.4451 14.7799 14.4451 14.7483 14.4646 14.7287C14.4842 14.7092 14.5158 14.7092 14.5354 14.7287" stroke="#303033" stroke-width="2" stroke-linecap="round" stroke-linejoin="round"/>
<path d="M14.5354 18.7287C14.5549 18.7483 14.5549 18.7799 14.5354 18.7995C14.5158 18.819 14.4842 18.819 14.4646 18.7995C14.4451 18.7799 14.4451 18.7483 14.4646 18.7287C14.4842 18.7092 14.5158 18.7092 14.5354 18.7287" stroke="#303033" stroke-width="2" stroke-linecap="round" stroke-linejoin="round"/>
<path d="M18.5354 18.7287C18.5549 18.7483 18.5549 18.7799 18.5354 18.7995C18.5158 18.819 18.4842 18.819 18.4646 18.7995C18.4451 18.7799 18.4451 18.7483 18.4646 18.7287C18.4842 18.7092 18.5158 18.7092 18.5354 18.7287" stroke="#303033" stroke-width="2" stroke-linecap="round" stroke-linejoin="round"/>
<path d="M22.0005 8.74216V5.26416C22.0005 4.15916 21.1055 3.26416 20.0005 3.26416H16.5225" stroke="#303033" stroke-width="2" stroke-linecap="round" stroke-linejoin="round"/>
<path d="M8.478 3.26416H5C3.895 3.26416 3 4.15916 3 5.26416V8.74216" stroke="#303033" stroke-width="2" stroke-linecap="round" stroke-linejoin="round"/>
<path d="M3 16.7861V20.2641C3 21.3691 3.895 22.2641 5 22.2641H8.478" stroke="#303033" stroke-width="2" stroke-linecap="round" stroke-linejoin="round"/>
<path d="M16.5225 22.2641H20.0005C21.1055 22.2641 22.0005 21.3691 22.0005 20.2641V16.7861" stroke="#303033" stroke-width="2" stroke-linecap="round" stroke-linejoin="round"/>
<path d="M18.5354 14.7287C18.5549 14.7483 18.5549 14.7799 18.5354 14.7995C18.5158 14.819 18.4842 14.819 18.4646 14.7995C18.4451 14.7799 18.4451 14.7483 18.4646 14.7287C18.4842 14.7092 18.5158 14.7092 18.5354 14.7287" stroke="#303033" stroke-width="2" stroke-linecap="round" stroke-linejoin="round"/>
</svg>
