<svg width="44" height="44" viewBox="0 0 44 44" fill="none" xmlns="http://www.w3.org/2000/svg">
<rect width="44" height="44" rx="22" fill="#007AFF"/>
<path fill-rule="evenodd" clip-rule="evenodd" d="M19.9259 13.0904C16.1504 13.0904 13.0904 16.1497 13.0904 19.9228C13.0904 23.6958 16.1504 26.7551 19.9259 26.7551C21.8147 26.7551 23.5229 25.9907 24.7611 24.7523C25.9982 23.5148 26.7615 21.8088 26.7615 19.9228C26.7615 16.1497 23.7014 13.0904 19.9259 13.0904ZM11.1104 19.9228C11.1104 15.0554 15.0576 11.1104 19.9259 11.1104C24.7942 11.1104 28.7415 15.0554 28.7415 19.9228C28.7415 21.9985 28.0225 23.9078 26.8216 25.4134L32.6009 31.2008C32.9872 31.5877 32.9868 32.2145 32.5999 32.6009C32.213 32.9872 31.5862 32.9868 31.1998 32.5999L25.4215 26.8135C23.9149 28.0156 22.0038 28.7351 19.9259 28.7351C15.0576 28.7351 11.1104 24.7901 11.1104 19.9228Z" fill="#F2F2F7"/>
</svg>
