<svg width="24" height="24" viewBox="0 0 24 24" fill="none" xmlns="http://www.w3.org/2000/svg">
<path d="M21.5493 3.23645C21.2268 2.96297 20.7202 2.92384 20.1965 3.13411H20.1956C19.6448 3.35513 4.60339 9.80685 3.99107 10.0704C3.8797 10.1091 2.90704 10.4721 3.00723 11.2805C3.09667 12.0093 3.87841 12.3112 3.97387 12.346L7.79786 13.6553C8.05156 14.4999 8.98681 17.6156 9.19364 18.2813C9.32264 18.6962 9.53291 19.2415 9.90142 19.3537C10.2248 19.4784 10.5464 19.3645 10.7545 19.2011L13.0924 17.0326L16.8666 19.9759L16.9564 20.0297C17.2127 20.1432 17.4582 20.1999 17.6926 20.1999C17.8736 20.1999 18.0473 20.166 18.2133 20.098C18.7788 19.8658 19.0049 19.327 19.0286 19.266L21.8477 4.61288C22.0197 3.83028 21.7806 3.4321 21.5493 3.23645ZM11.1703 14.1791L9.88035 17.6191L8.59035 13.3191L18.4803 6.00909L11.1703 14.1791Z" fill="#007AFF"/>
</svg>
