<svg width="18" height="18" viewBox="0 0 18 18" fill="none" xmlns="http://www.w3.org/2000/svg">
<path d="M16.6097 2.35872C16.3397 2.12976 15.9156 2.097 15.4771 2.27304H15.4764C15.0152 2.45808 2.42245 7.85952 1.90981 8.0802C1.81657 8.1126 1.00225 8.41644 1.08613 9.09324C1.16101 9.70344 1.81549 9.95616 1.89541 9.98532L5.09689 11.0815C5.30929 11.7886 6.09229 14.3971 6.26545 14.9544C6.37345 15.3018 6.54949 15.7583 6.85801 15.8522C7.12873 15.9566 7.39801 15.8612 7.57225 15.7244L9.52957 13.909L12.6893 16.3732L12.7645 16.4182C12.9791 16.5132 13.1846 16.5607 13.3808 16.5607C13.5324 16.5607 13.6779 16.5323 13.8168 16.4754C14.2902 16.281 14.4796 15.8299 14.4994 15.7788L16.8595 3.51108C17.0035 2.85588 16.8034 2.52252 16.6097 2.35872ZM7.92037 11.52L6.84037 14.4L5.76037 10.8L14.0404 4.68L7.92037 11.52Z" fill="white"/>
</svg>
