<svg width="19" height="21" viewBox="0 0 19 21" fill="none" xmlns="http://www.w3.org/2000/svg">
<path fill-rule="evenodd" clip-rule="evenodd" d="M5.0232 1.39548C5.15589 0.989102 5.41063 0.635635 5.75129 0.385188C6.09196 0.13474 6.50127 1.89879e-05 6.9212 0.000122129L11.4792 0.000122129C11.8991 1.89879e-05 12.3084 0.13474 12.6491 0.385188C12.9898 0.635635 13.2445 0.989102 13.3772 1.39548L13.9202 3.06012H17.2002C17.4654 3.06012 17.7198 3.16759 17.9073 3.35887C18.0948 3.55016 18.2002 3.8096 18.2002 4.08012C18.2002 4.35064 18.0948 4.61008 17.9073 4.80137C17.7198 4.99266 17.4654 5.10012 17.2002 5.10012H16.2002V17.3401C16.2002 18.1517 15.8841 18.93 15.3215 19.5039C14.7589 20.0777 13.9958 20.4001 13.2002 20.4001H5.2002C4.40455 20.4001 3.64148 20.0777 3.07888 19.5039C2.51627 18.93 2.2002 18.1517 2.2002 17.3401V5.10012H1.2002C0.934979 5.10012 0.680625 4.99266 0.493088 4.80137C0.305552 4.61008 0.200195 4.35064 0.200195 4.08012C0.200195 3.8096 0.305552 3.55016 0.493088 3.35887C0.680625 3.16759 0.934979 3.06012 1.2002 3.06012H4.4802L5.0232 1.39548ZM6.5872 3.06012L6.9212 2.04012H11.4792L11.8132 3.06012H6.5872Z" fill="#D6D6D6"/>
</svg>
