<svg width="18" height="22" viewBox="0 0 18 22" fill="none" xmlns="http://www.w3.org/2000/svg">
<path fill-rule="evenodd" clip-rule="evenodd" d="M1.73077 6.59677V19.4677C1.73077 20.1452 2.14615 21.5 3.80769 21.5H14.5385C16.2 21.5 16.6154 20.1452 16.6154 19.4677V6.59677H1.73077ZM6.57692 17.9435V10.1532C6.57692 9.68557 6.18948 9.30645 5.71154 9.30645C5.2336 9.30645 4.84615 9.68557 4.84615 10.1532V17.9435C4.84615 18.4112 5.2336 18.7903 5.71154 18.7903C6.18948 18.7903 6.57692 18.4112 6.57692 17.9435ZM10.0385 17.9435V10.1532C10.0385 9.68557 9.65102 9.30645 9.17308 9.30645C8.69514 9.30645 8.30769 9.68557 8.30769 10.1532V17.9435C8.30769 18.4112 8.69514 18.7903 9.17308 18.7903C9.65102 18.7903 10.0385 18.4112 10.0385 17.9435ZM13.5 17.9435V10.1532C13.5 9.68557 13.1126 9.30645 12.6346 9.30645C12.1567 9.30645 11.7692 9.68557 11.7692 10.1532V17.9435C11.7692 18.4112 12.1567 18.7903 12.6346 18.7903C13.1126 18.7903 13.5 18.4112 13.5 17.9435Z" fill="white"/>
<path d="M4.84615 3.8871V2.53226C4.84615 1.85484 5.26154 0.5 6.92308 0.5H11.0769C12.7385 0.5 13.1538 1.85484 13.1538 2.53226V3.8871H17.3077C17.69 3.8871 18 4.19039 18 4.56452C18 4.93864 17.69 5.24194 17.3077 5.24194H0.692308C0.309957 5.24194 0 4.93864 0 4.56452C0 4.19039 0.309957 3.8871 0.692308 3.8871H4.84615Z" fill="white"/>
</svg>
